***************************************************************
 
http://www.torrentforce.org/imghost/3/greyshadow_tfbanner.png

***************************************************************
 
http://www.torrentforce.org/imghost/4/greyshadow_chaletgirl.jpg

***************************************************************

FILM TITLE: Chalet Girl (2011)

***************************************************************

Genre: Comedy | Romance   

Release: 16 March 2011 (UK)

Director: Phil Traill

Writer: Tom Williams

Stars: Felicity Jones, Ed Westwick and Bill Nighy

Country: UK | Germany | Austria

Language: English | German

Plot:
Pretty tomboy Kim Matthews, 19, used to be a champion skateboarder
- but now she's stuck in a dead end job trying to support her Dad...

IMDB Rating: 5.9/10 (1,803 Votes) 
 
http://www.imdb.com/title/tt1487118/ 

****************************************************************
 
http://www.torrentforce.org/imghost/4/greyshadow_chaletgirlxvid1.png 
http://www.torrentforce.org/imghost/4/greyshadow_chaletgirlxvid2.png 
http://www.torrentforce.org/imghost/4/greyshadow_chaletgirlxvid3.png 
http://www.torrentforce.org/imghost/4/greyshadow_chaletgirlxvid4.png

****************************************************************

[IMG]http://www.torrentforce.org/imghost/2/greyshadow_mediainfo.png[/IMG]
General
Complete name                    : Chalet Girl 2011 720p BRRip XviD ac3 (avi) [TFRG].avi
Format                           : AVI
Format/Info                      : Audio Video Interleave
Format profile                   : OpenDML
File size                        : 2.16 GiB
Duration                         : 1h 36mn
Overall bit rate                 : 3200 Kbps
Writing library                  : VirtualDub build 32842/release

Video
ID                               : 0
Format                           : MPEG-4 Visual
Format profile                   : Simple@L5
Format settings, BVOP            : No
Format settings, QPel            : No
Format settings, GMC             : No warppoints
Format settings, Matrix          : Default (H.263)
Codec ID                         : XVID
Codec ID/Hint                    : XviD
Duration                         : 1h 36mn
Bit rate                         : 2868 Kbps
Width                            : 1280 pixels
Height                           : 688 pixels
Display aspect ratio             : 1.860
Frame rate                       : 23.976 fps
Color space                      : YUV
Chroma subsampling               : 4:2:0
Bit depth                        : 8 bits
Scan type                        : Progressive
Compression mode                 : Lossy
Bits/(Pixel*Frame)               : 0.136
Stream size                      : 1.94 GiB (90%)
Writing library                  : XviD 64

Audio
ID                               : 1
Format                           : AC-3
Format/Info                      : Audio Coding 3
Mode extension                   : CM (complete main)
Codec ID                         : 2000
Duration                         : 1h 36mn
Bit rate mode                    : Constant
Bit rate                         : 320 Kbps
Channel(s)                       : 6 channels
Channel positions                : Front: L C R, Side: L R, LFE
Sampling rate                    : 48.0 KHz
Bit depth                        : 16 bits
Compression mode                 : Lossy
Stream size                      : 221 MiB (10%)
Alignment                        : Aligned on interleaves
Interleave, duration             : 42 ms (1.00 video frame)
Interleave, preload duration     : 512 ms

****************************************************************

Video Source: Chalet Girls 2011 BluRay 1080p AVC DTS-HD MA5.1-CHDBits (27GB) 

Thanks: (chdbits.org)

****************************************************************

I provide a small sample, so please download this to check your 
compatibility first if you are unsure.

****************************************************************

Plays on PS3 and WDTVHD Live Player

****************************************************************

A big thanks to all the sites out there who care and share and
who make it possible for you to download this torrent for free.

Greetz to Ripwyn, mustang, noir, Blackjesus, MXMG, The Stig and 
all the other outstanding members of our community of file sharers
and a special mention to our friends at 1337x.  

****************************************************************